<svg xmlns="http://www.w3.org/2000/svg" xmlns:xlink="http://www.w3.org/1999/xlink" width="500" zoomAndPan="magnify" viewBox="0 0 375 374.999991" height="500" preserveAspectRatio="xMidYMid meet" version="1.0"><defs><g/><clipPath id="da3dfdd85c"><path d="M 178.113281 146.289062 L 196.886719 146.289062 L 196.886719 165.058594 L 178.113281 165.058594 Z M 178.113281 146.289062 " clip-rule="nonzero"/></clipPath><clipPath id="354e28070e"><path d="M 187.5 146.289062 C 182.316406 146.289062 178.113281 150.492188 178.113281 155.675781 C 178.113281 160.855469 182.316406 165.058594 187.5 165.058594 C 192.683594 165.058594 196.886719 160.855469 196.886719 155.675781 C 196.886719 150.492188 192.683594 146.289062 187.5 146.289062 Z M 187.5 146.289062 " clip-rule="nonzero"/></clipPath><clipPath id="8a8ea37d41"><path d="M 165.339844 179 L 209.589844 179 L 209.589844 193.535156 L 165.339844 193.535156 Z M 165.339844 179 " clip-rule="nonzero"/></clipPath><clipPath id="4303d3fa68"><path d="M 169 138.785156 L 205 138.785156 L 205 189 L 169 189 Z M 169 138.785156 " clip-rule="nonzero"/></clipPath></defs><g clip-path="url(#da3dfdd85c)"><g clip-path="url(#354e28070e)"><path fill="#ffffff" d="M 178.113281 146.289062 L 196.886719 146.289062 L 196.886719 165.058594 L 178.113281 165.058594 Z M 178.113281 146.289062 " fill-opacity="1" fill-rule="nonzero"/></g></g><path fill="#00de90" d="M 191.601562 180.488281 C 201.222656 181.042969 208.476562 183.515625 208.476562 186.480469 C 208.476562 189.851562 199.089844 192.589844 187.5 192.589844 C 175.914062 192.589844 166.523438 189.851562 166.523438 186.480469 C 166.523438 183.550781 173.609375 181.101562 183.0625 180.507812 C 184.78125 183.246094 186.304688 185.683594 187.3125 187.503906 C 188.355469 185.621094 189.886719 183.1875 191.601562 180.488281 Z M 191.601562 180.488281 " fill-opacity="1" fill-rule="nonzero"/><path fill="#00fa85" d="M 187.3125 139.988281 C 196.390625 139.988281 203.753906 147.347656 203.753906 156.429688 C 203.753906 161.554688 196.824219 172.261719 191.601562 180.488281 C 189.886719 183.1875 188.355469 185.621094 187.3125 187.503906 C 186.304688 185.683594 184.78125 183.246094 183.0625 180.507812 C 177.863281 172.238281 170.871094 161.242188 170.871094 156.429688 C 170.871094 147.347656 178.234375 139.988281 187.3125 139.988281 Z M 194.660156 155.808594 C 194.660156 151.761719 191.359375 148.460938 187.3125 148.460938 C 183.265625 148.460938 179.964844 151.761719 179.964844 155.808594 C 179.964844 159.855469 183.265625 163.152344 187.3125 163.152344 C 191.359375 163.152344 194.660156 159.855469 194.660156 155.808594 Z M 194.660156 155.808594 " fill-opacity="1" fill-rule="nonzero"/><g clip-path="url(#8a8ea37d41)"><path fill="#000000" d="M 187.5 193.773438 C 181.789062 193.773438 176.402344 193.121094 172.335938 191.9375 C 167.757812 190.605469 165.335938 188.71875 165.335938 186.480469 C 165.335938 182.019531 174.84375 179.835938 182.988281 179.324219 C 183.640625 179.28125 184.203125 179.78125 184.246094 180.433594 C 184.285156 181.085938 183.789062 181.648438 183.136719 181.691406 C 178.628906 181.972656 174.546875 182.699219 171.644531 183.734375 C 168.738281 184.769531 167.707031 185.863281 167.707031 186.480469 C 167.707031 187.089844 168.820312 188.445312 172.996094 189.660156 C 176.855469 190.785156 182.007812 191.402344 187.5 191.402344 C 192.996094 191.402344 198.144531 190.785156 202.003906 189.660156 C 206.179688 188.445312 207.292969 187.089844 207.292969 186.480469 C 207.292969 184.886719 201.679688 182.253906 191.53125 181.671875 C 190.878906 181.632812 190.378906 181.074219 190.417969 180.421875 C 190.457031 179.765625 191.015625 179.265625 191.667969 179.304688 C 199.96875 179.78125 209.664062 181.949219 209.664062 186.480469 C 209.664062 188.71875 207.242188 190.605469 202.664062 191.9375 C 198.597656 193.121094 193.210938 193.773438 187.5 193.773438 Z M 187.5 193.773438 " fill-opacity="1" fill-rule="nonzero"/></g><g clip-path="url(#4303d3fa68)"><path fill="#000000" d="M 187.3125 188.6875 C 186.882812 188.6875 186.484375 188.453125 186.277344 188.078125 C 185.296875 186.3125 183.785156 183.890625 182.058594 181.136719 L 181.65625 180.5 C 176.324219 172.019531 169.6875 161.460938 169.6875 156.429688 C 169.6875 146.710938 177.59375 138.804688 187.3125 138.804688 C 197.03125 138.804688 204.9375 146.710938 204.9375 156.429688 C 204.9375 161.710938 198.691406 171.542969 193.179688 180.214844 L 192.601562 181.125 C 190.886719 183.824219 189.382812 186.214844 188.351562 188.078125 C 188.140625 188.453125 187.746094 188.6875 187.3125 188.6875 Z M 187.3125 141.171875 C 178.902344 141.171875 172.058594 148.015625 172.058594 156.429688 C 172.058594 160.777344 178.765625 171.449219 183.664062 179.238281 L 184.066406 179.878906 C 185.328125 181.890625 186.425781 183.640625 187.3125 185.132812 C 188.242188 183.578125 189.367188 181.792969 190.601562 179.855469 L 191.175781 178.945312 C 195.984375 171.382812 202.566406 161.023438 202.566406 156.429688 C 202.566406 148.015625 195.722656 141.171875 187.3125 141.171875 Z M 187.3125 141.171875 " fill-opacity="1" fill-rule="nonzero"/></g><path fill="#000000" d="M 187.3125 164.339844 C 182.609375 164.339844 178.78125 160.511719 178.78125 155.808594 C 178.78125 151.105469 182.609375 147.277344 187.3125 147.277344 C 192.015625 147.277344 195.84375 151.105469 195.84375 155.808594 C 195.84375 160.511719 192.015625 164.339844 187.3125 164.339844 Z M 187.3125 149.644531 C 183.914062 149.644531 181.152344 152.410156 181.152344 155.808594 C 181.152344 159.207031 183.914062 161.96875 187.3125 161.96875 C 190.710938 161.96875 193.472656 159.207031 193.472656 155.808594 C 193.472656 152.410156 190.710938 149.644531 187.3125 149.644531 Z M 187.3125 149.644531 " fill-opacity="1" fill-rule="nonzero"/><g fill="#ffffff" fill-opacity="1"><g transform="translate(60.321512, 190.310731)"><g><path d="M 1.28125 0 L 1.28125 -3.234375 L 2.59375 -3.359375 C 3.375 -3.441406 3.765625 -3.816406 3.765625 -4.484375 L 3.765625 -23.078125 L 1.484375 -23.203125 L 1.484375 -26.59375 L 12.40625 -26.59375 C 15.5 -26.59375 17.867188 -26.019531 19.515625 -24.875 C 21.171875 -23.726562 22 -21.847656 22 -19.234375 C 22 -17.421875 21.523438 -15.925781 20.578125 -14.75 C 19.628906 -13.582031 18.503906 -12.734375 17.203125 -12.203125 C 18.160156 -11.859375 18.921875 -11.046875 19.484375 -9.765625 L 22.359375 -3.484375 L 24.640625 -3.40625 L 24.640625 0 L 14.765625 0 L 14.765625 -3.234375 L 15.921875 -3.359375 C 16.535156 -3.441406 16.84375 -3.679688 16.84375 -4.078125 C 16.84375 -4.234375 16.789062 -4.421875 16.6875 -4.640625 L 14.796875 -8.640625 C 14.503906 -9.304688 14.175781 -9.78125 13.8125 -10.0625 C 13.457031 -10.34375 12.945312 -10.484375 12.28125 -10.484375 L 8.640625 -10.484375 L 8.640625 -3.515625 L 11.234375 -3.40625 L 11.234375 0 Z M 8.640625 -14.28125 L 12.125 -14.28125 C 15.40625 -14.28125 17.046875 -15.75 17.046875 -18.6875 C 17.046875 -20.363281 16.609375 -21.453125 15.734375 -21.953125 C 14.867188 -22.460938 13.476562 -22.71875 11.5625 -22.71875 L 8.640625 -22.71875 Z M 8.640625 -14.28125 "/></g></g></g><g fill="#ffffff" fill-opacity="1"><g transform="translate(85.35902, 190.310731)"><g><path d="M 10.515625 -2.921875 C 13.421875 -2.921875 14.875 -5.265625 14.875 -9.953125 C 14.875 -12.328125 14.546875 -14.128906 13.890625 -15.359375 C 13.242188 -16.585938 12.148438 -17.203125 10.609375 -17.203125 C 9.078125 -17.203125 7.953125 -16.613281 7.234375 -15.4375 C 6.515625 -14.269531 6.15625 -12.671875 6.15625 -10.640625 C 6.15625 -6.878906 6.847656 -4.519531 8.234375 -3.5625 C 8.847656 -3.132812 9.609375 -2.921875 10.515625 -2.921875 Z M 1.3125 -10.078125 C 1.3125 -12.054688 1.601562 -13.769531 2.1875 -15.21875 C 2.78125 -16.675781 3.570312 -17.789062 4.5625 -18.5625 C 6.457031 -20 8.550781 -20.71875 10.84375 -20.71875 C 12.4375 -20.71875 13.785156 -20.457031 14.890625 -19.9375 C 16.003906 -19.414062 16.875 -18.816406 17.5 -18.140625 C 18.125 -17.460938 18.65625 -16.472656 19.09375 -15.171875 C 19.539062 -13.878906 19.765625 -12.351562 19.765625 -10.59375 C 19.765625 -6.914062 18.867188 -4.128906 17.078125 -2.234375 C 15.296875 -0.347656 13.007812 0.59375 10.21875 0.59375 C 7.4375 0.59375 5.253906 -0.300781 3.671875 -2.09375 C 2.097656 -3.894531 1.3125 -6.554688 1.3125 -10.078125 Z M 1.3125 -10.078125 "/></g></g></g><g fill="#ffffff" fill-opacity="1"><g transform="translate(105.876959, 190.310731)"><g><path d="M 22.515625 -3.15625 L 22.515625 0 L 16.046875 0 L 16.046875 -2.59375 C 14.578125 -0.519531 12.414062 0.515625 9.5625 0.515625 C 5.425781 0.515625 3.359375 -1.789062 3.359375 -6.40625 L 3.359375 -15.640625 C 3.359375 -16.359375 3.023438 -16.734375 2.359375 -16.765625 L 1.078125 -16.84375 L 1.078125 -20.125 L 8.125 -20.125 L 8.125 -7.4375 C 8.125 -6.019531 8.320312 -4.953125 8.71875 -4.234375 C 9.113281 -3.515625 9.9375 -3.15625 11.1875 -3.15625 C 12.445312 -3.15625 13.457031 -3.539062 14.21875 -4.3125 C 14.976562 -5.09375 15.359375 -6.03125 15.359375 -7.125 L 15.359375 -15.5625 C 15.359375 -15.988281 15.285156 -16.285156 15.140625 -16.453125 C 14.992188 -16.628906 14.734375 -16.734375 14.359375 -16.765625 L 13.078125 -16.84375 L 13.078125 -20.125 L 20.125 -20.125 L 20.125 -4.4375 C 20.125 -4.007812 20.1875 -3.722656 20.3125 -3.578125 C 20.445312 -3.429688 20.71875 -3.332031 21.125 -3.28125 Z M 22.515625 -3.15625 "/></g></g></g><g fill="#ffffff" fill-opacity="1"><g transform="translate(128.314691, 190.310731)"><g><path d="M 5.765625 -24.359375 L 8.359375 -24.359375 L 8.359375 -20.125 L 13.6875 -20.125 L 13.28125 -16.765625 L 8.359375 -16.765625 L 8.359375 -6.234375 C 8.359375 -5.066406 8.570312 -4.25 9 -3.78125 C 9.425781 -3.3125 10.082031 -3.078125 10.96875 -3.078125 C 11.863281 -3.078125 12.769531 -3.359375 13.6875 -3.921875 L 14.875 -0.84375 C 13.539062 0.09375 11.847656 0.5625 9.796875 0.5625 C 8.597656 0.5625 7.582031 0.40625 6.75 0.09375 C 5.925781 -0.207031 5.3125 -0.546875 4.90625 -0.921875 C 4.507812 -1.296875 4.207031 -1.84375 4 -2.5625 C 3.789062 -3.28125 3.671875 -3.84375 3.640625 -4.25 C 3.609375 -4.664062 3.59375 -5.273438 3.59375 -6.078125 L 3.59375 -16.765625 L 0.765625 -16.765625 L 1.15625 -19.6875 C 2.414062 -19.789062 3.363281 -20.234375 4 -21.015625 C 4.632812 -21.804688 5.222656 -22.921875 5.765625 -24.359375 Z M 5.765625 -24.359375 "/></g></g></g><g fill="#ffffff" fill-opacity="1"><g transform="translate(143.393196, 190.310731)"><g><path d="M 11.359375 -20.71875 C 13.359375 -20.71875 14.941406 -20.226562 16.109375 -19.25 C 17.285156 -18.28125 17.875 -16.914062 17.875 -15.15625 C 17.875 -13.988281 17.617188 -12.957031 17.109375 -12.0625 C 16.609375 -11.164062 15.984375 -10.460938 15.234375 -9.953125 C 14.492188 -9.453125 13.585938 -9.039062 12.515625 -8.71875 C 10.734375 -8.1875 8.722656 -7.921875 6.484375 -7.921875 C 6.554688 -6.503906 6.992188 -5.363281 7.796875 -4.5 C 8.597656 -3.632812 9.820312 -3.203125 11.46875 -3.203125 C 13.125 -3.203125 14.78125 -3.785156 16.4375 -4.953125 L 17.953125 -1.71875 C 17.421875 -1.238281 16.519531 -0.742188 15.25 -0.234375 C 13.988281 0.265625 12.546875 0.515625 10.921875 0.515625 C 7.671875 0.515625 5.285156 -0.378906 3.765625 -2.171875 C 2.242188 -3.972656 1.484375 -6.445312 1.484375 -9.59375 C 1.484375 -12.738281 2.347656 -15.378906 4.078125 -17.515625 C 5.816406 -19.648438 8.242188 -20.71875 11.359375 -20.71875 Z M 9.53125 -11.578125 C 10.507812 -11.753906 11.410156 -12.140625 12.234375 -12.734375 C 13.066406 -13.335938 13.484375 -14.050781 13.484375 -14.875 C 13.484375 -16.5 12.679688 -17.3125 11.078125 -17.3125 C 9.585938 -17.3125 8.441406 -16.71875 7.640625 -15.53125 C 6.835938 -14.351562 6.394531 -12.9375 6.3125 -11.28125 C 7.488281 -11.300781 8.5625 -11.398438 9.53125 -11.578125 Z M 9.53125 -11.578125 "/></g></g></g><g fill="#ffffff" fill-opacity="1"><g transform="translate(214.230826, 190.310731)"><g><path d="M 1.5625 -26.59375 L 12.84375 -26.59375 C 18.601562 -26.59375 21.484375 -24.367188 21.484375 -19.921875 C 21.484375 -17.460938 20.253906 -15.59375 17.796875 -14.3125 C 19.367188 -13.914062 20.601562 -13.179688 21.5 -12.109375 C 22.394531 -11.046875 22.84375 -9.660156 22.84375 -7.953125 C 22.84375 -5.367188 21.96875 -3.394531 20.21875 -2.03125 C 18.46875 -0.675781 15.925781 0 12.59375 0 L 1.359375 0 L 1.359375 -3.234375 L 2.6875 -3.359375 C 3.457031 -3.441406 3.84375 -3.816406 3.84375 -4.484375 L 3.84375 -23.078125 L 1.5625 -23.203125 Z M 8.71875 -12.125 L 8.71875 -3.765625 L 12.484375 -3.765625 C 15.953125 -3.765625 17.6875 -5.175781 17.6875 -8 C 17.6875 -9.332031 17.25 -10.351562 16.375 -11.0625 C 15.507812 -11.769531 14.28125 -12.125 12.6875 -12.125 Z M 8.71875 -22.921875 L 8.71875 -15.6875 L 11.6875 -15.6875 C 13.332031 -15.6875 14.546875 -16.023438 15.328125 -16.703125 C 16.117188 -17.378906 16.515625 -18.332031 16.515625 -19.5625 C 16.515625 -20.789062 16.117188 -21.65625 15.328125 -22.15625 C 14.546875 -22.664062 13.421875 -22.921875 11.953125 -22.921875 Z M 8.71875 -22.921875 "/></g></g></g><g fill="#ffffff" fill-opacity="1"><g transform="translate(238.308438, 190.310731)"><g><path d="M 10.515625 -2.921875 C 13.421875 -2.921875 14.875 -5.265625 14.875 -9.953125 C 14.875 -12.328125 14.546875 -14.128906 13.890625 -15.359375 C 13.242188 -16.585938 12.148438 -17.203125 10.609375 -17.203125 C 9.078125 -17.203125 7.953125 -16.613281 7.234375 -15.4375 C 6.515625 -14.269531 6.15625 -12.671875 6.15625 -10.640625 C 6.15625 -6.878906 6.847656 -4.519531 8.234375 -3.5625 C 8.847656 -3.132812 9.609375 -2.921875 10.515625 -2.921875 Z M 1.3125 -10.078125 C 1.3125 -12.054688 1.601562 -13.769531 2.1875 -15.21875 C 2.78125 -16.675781 3.570312 -17.789062 4.5625 -18.5625 C 6.457031 -20 8.550781 -20.71875 10.84375 -20.71875 C 12.4375 -20.71875 13.785156 -20.457031 14.890625 -19.9375 C 16.003906 -19.414062 16.875 -18.816406 17.5 -18.140625 C 18.125 -17.460938 18.65625 -16.472656 19.09375 -15.171875 C 19.539062 -13.878906 19.765625 -12.351562 19.765625 -10.59375 C 19.765625 -6.914062 18.867188 -4.128906 17.078125 -2.234375 C 15.296875 -0.347656 13.007812 0.59375 10.21875 0.59375 C 7.4375 0.59375 5.253906 -0.300781 3.671875 -2.09375 C 2.097656 -3.894531 1.3125 -6.554688 1.3125 -10.078125 Z M 1.3125 -10.078125 "/></g></g></g><g fill="#ffffff" fill-opacity="1"><g transform="translate(259.426345, 190.310731)"><g><path d="M 10.515625 -2.921875 C 13.421875 -2.921875 14.875 -5.265625 14.875 -9.953125 C 14.875 -12.328125 14.546875 -14.128906 13.890625 -15.359375 C 13.242188 -16.585938 12.148438 -17.203125 10.609375 -17.203125 C 9.078125 -17.203125 7.953125 -16.613281 7.234375 -15.4375 C 6.515625 -14.269531 6.15625 -12.671875 6.15625 -10.640625 C 6.15625 -6.878906 6.847656 -4.519531 8.234375 -3.5625 C 8.847656 -3.132812 9.609375 -2.921875 10.515625 -2.921875 Z M 1.3125 -10.078125 C 1.3125 -12.054688 1.601562 -13.769531 2.1875 -15.21875 C 2.78125 -16.675781 3.570312 -17.789062 4.5625 -18.5625 C 6.457031 -20 8.550781 -20.71875 10.84375 -20.71875 C 12.4375 -20.71875 13.785156 -20.457031 14.890625 -19.9375 C 16.003906 -19.414062 16.875 -18.816406 17.5 -18.140625 C 18.125 -17.460938 18.65625 -16.472656 19.09375 -15.171875 C 19.539062 -13.878906 19.765625 -12.351562 19.765625 -10.59375 C 19.765625 -6.914062 18.867188 -4.128906 17.078125 -2.234375 C 15.296875 -0.347656 13.007812 0.59375 10.21875 0.59375 C 7.4375 0.59375 5.253906 -0.300781 3.671875 -2.09375 C 2.097656 -3.894531 1.3125 -6.554688 1.3125 -10.078125 Z M 1.3125 -10.078125 "/></g></g></g><g fill="#ffffff" fill-opacity="1"><g transform="translate(280.544252, 190.310731)"><g><path d="M 3.796875 -4.484375 L 3.796875 -23.953125 C 3.796875 -24.378906 3.722656 -24.671875 3.578125 -24.828125 C 3.429688 -24.992188 3.171875 -25.09375 2.796875 -25.125 L 1.40625 -25.203125 L 1.40625 -28.515625 L 8.515625 -28.515625 L 8.515625 -11.203125 C 9.984375 -11.335938 11.265625 -11.789062 12.359375 -12.5625 C 13.453125 -13.332031 14.195312 -14.34375 14.59375 -15.59375 C 14.675781 -15.863281 14.71875 -16.078125 14.71875 -16.234375 C 14.71875 -16.691406 14.460938 -16.921875 13.953125 -16.921875 L 12.4375 -17 L 12.4375 -20.125 L 20.71875 -20.125 L 20.71875 -16.875 L 18.796875 -16.796875 C 18.453125 -14.078125 17.28125 -11.929688 15.28125 -10.359375 L 19.203125 -3.3125 L 21.640625 -3.203125 L 21.640625 0 L 15.796875 0 L 11.234375 -8.3125 C 10.359375 -8.070312 9.453125 -7.890625 8.515625 -7.765625 L 8.515625 -3.3125 L 8.5625 -3.3125 L 10.84375 -3.203125 L 10.84375 0 L 1.3125 0 L 1.3125 -3.046875 L 2.640625 -3.15625 C 3.035156 -3.207031 3.328125 -3.320312 3.515625 -3.5 C 3.703125 -3.675781 3.796875 -4.003906 3.796875 -4.484375 Z M 3.796875 -4.484375 "/></g></g></g><g fill="#ffffff" fill-opacity="1"><g transform="translate(302.782043, 190.310731)"><g><path d="M 11.796875 -17.078125 C 11.160156 -17.316406 10.390625 -17.4375 9.484375 -17.4375 C 8.578125 -17.4375 7.847656 -17.226562 7.296875 -16.8125 C 6.753906 -16.40625 6.484375 -15.898438 6.484375 -15.296875 C 6.484375 -14.703125 6.582031 -14.238281 6.78125 -13.90625 C 6.976562 -13.570312 7.289062 -13.285156 7.71875 -13.046875 C 8.382812 -12.691406 9.179688 -12.390625 10.109375 -12.140625 C 11.046875 -11.890625 11.738281 -11.6875 12.1875 -11.53125 C 12.644531 -11.382812 13.210938 -11.140625 13.890625 -10.796875 C 14.578125 -10.453125 15.09375 -10.082031 15.4375 -9.6875 C 16.375 -8.695312 16.84375 -7.425781 16.84375 -5.875 C 16.84375 -3.875 16.113281 -2.304688 14.65625 -1.171875 C 13.207031 -0.046875 11.363281 0.515625 9.125 0.515625 C 5.863281 0.515625 3.410156 0.101562 1.765625 -0.71875 L 1.765625 -6.28125 L 5.359375 -6.5625 L 5.359375 -4.640625 C 5.359375 -3.460938 6.476562 -2.875 8.71875 -2.875 C 10.957031 -2.875 12.078125 -3.6875 12.078125 -5.3125 C 12.078125 -5.90625 11.882812 -6.382812 11.5 -6.75 C 11.113281 -7.125 10.734375 -7.378906 10.359375 -7.515625 C 9.984375 -7.648438 9.535156 -7.785156 9.015625 -7.921875 C 8.492188 -8.054688 7.988281 -8.1875 7.5 -8.3125 C 7.007812 -8.445312 6.476562 -8.628906 5.90625 -8.859375 C 5.332031 -9.085938 4.695312 -9.414062 4 -9.84375 C 2.632812 -10.71875 1.953125 -12.1875 1.953125 -14.25 C 1.953125 -16.320312 2.6875 -17.914062 4.15625 -19.03125 C 5.625 -20.15625 7.472656 -20.71875 9.703125 -20.71875 C 11.929688 -20.71875 14.132812 -20.1875 16.3125 -19.125 L 16.3125 -14.3125 L 12.71875 -14.046875 L 12.71875 -15.71875 C 12.71875 -16.382812 12.410156 -16.835938 11.796875 -17.078125 Z M 11.796875 -17.078125 "/></g></g></g></svg>